<svg xmlns="http://www.w3.org/2000/svg" width="1000" height="925" viewBox="0 0 1000 925" font-family="sans-serif">
<rect width="1000" height="925" fill="#f7f5ef"/>
<path d="M960.0,157.1 L511.4,496.1 L460.9,686.2 L377.0,787.2 L293.4,798.5 L255.6,863.0 L243.9,874.9 L191.4,885.3 L182.2,820.4 L154.6,798.2 L159.5,771.0 L165.3,716.5 L170.1,696.5 L181.8,632.2 L196.3,429.3 L210.0,247.0 L98.7,199.0 L72.2,126.3 L49.8,112.4 L40.0,88.0 L45.5,63.1 L57.1,40.0 L90.7,42.9 L188.2,54.4 L258.7,63.2 L298.1,66.7 L331.0,62.5 L413.7,66.3 L496.1,71.2 L517.1,50.6 L519.5,48.4 L536.5,51.6 L553.7,54.7 L577.8,59.6 L580.8,60.5 L582.9,66.2 L588.4,62.7 L595.3,63.0 L650.3,64.2 L691.2,64.4 L728.6,69.9 L779.6,77.9 L816.9,84.3 L866.2,92.6 L913.4,123.5 L942.4,143.9 L960.0,157.1" fill="none" stroke="#c9b98f" stroke-width="1.5" stroke-dasharray="4 4"/>
<path d="M184.3,832.8 L182.4,819.0 L186.3,809.2 L198.8,776.3 L237.0,760.6 L252.7,749.6 L257.4,752.6" fill="none" stroke="#8a8a80" stroke-width="1.3"/>
<path d="M335.4,792.6 L335.3,792.3" fill="none" stroke="#d1341f" stroke-width="3" opacity="0.9"/>
<path d="M335.3,792.3 L292.3,798.2 L255.1,862.9 L244.1,874.1 L191.1,885.0" fill="none" stroke="#d1341f" stroke-width="3" opacity="0.9"/>
<path d="M335.3,792.3 L334.0,790.0 L333.8,786.0 L335.2,781.1 L336.2,778.3 L337.8,774.6 L339.4,769.1 L341.3,764.2 L345.1,758.2 L349.9,756.4 L354.3,756.2 L359.2,756.3 L362.6,756.6 L365.4,756.6 L368.7,754.1 L370.5,754.1 L373.8,751.8 L377.4,749.9 L378.6,749.0 L379.1,747.4 L380.5,745.0 L383.9,741.3 L385.4,739.8 L387.0,735.6 L385.9,734.7 L384.1,732.9 L381.6,731.6 L378.4,725.3 L376.9,720.8 L376.2,717.8 L376.9,711.6 L378.0,708.8 L385.2,692.8 L387.6,688.1 L389.7,684.2 L404.0,660.7 L407.1,656.4 L406.5,653.2 L409.5,651.2 L417.8,638.4 L422.2,630.7 L423.8,622.6 L429.2,602.0 L435.1,587.3" fill="none" stroke="#8a8a80" stroke-width="1.3"/>
<path d="M198.9,776.1 L200.0,770.4 L200.0,767.3 L199.6,762.1 L199.7,759.1 L201.3,757.3 L203.6,755.1 L204.7,753.6 L204.7,751.3 L207.5,749.3 L212.0,747.5 L213.8,742.8 L214.0,740.0 L214.3,737.1 L215.3,734.3 L215.2,727.7 L215.0,726.0 L214.4,725.3 L210.9,724.1 L209.2,722.7 L207.3,721.2 L206.8,720.8 L204.6,721.1 L203.4,722.2 L203.2,722.4 L201.6,722.5 L199.9,721.5 L199.1,721.1 L197.7,720.7 L196.3,719.5 L195.1,718.3 L193.6,718.3 L192.3,718.0 L190.8,717.0 L187.1,714.6 L185.4,713.9 L184.3,712.4 L182.4,711.8 L179.3,711.1 L177.5,711.3 L175.7,711.6 L172.9,711.9 L172.6,711.9 L169.5,710.6 L169.4,709.4 L168.7,708.1 L169.3,707.6 L170.1,707.2 L168.0,706.8 L172.7,683.8 L182.6,632.5 L182.7,631.4" fill="none" stroke="#8a8a80" stroke-width="1.3"/>
<path d="M257.4,752.6 L258.9,753.0 L261.2,753.5 L263.5,754.4 L264.9,751.1 L265.8,747.8 L268.3,747.3 L269.0,746.4 L271.5,743.8 L275.4,739.5 L276.4,736.9 L279.1,735.4 L284.3,733.4 L288.3,733.1 L290.0,733.8 L292.1,730.6 L300.3,718.9 L301.7,716.8 L308.9,706.8 L309.9,687.2 L309.9,686.9" fill="none" stroke="#8a8a80" stroke-width="1.3"/>
<path d="M309.9,686.9 L310.1,681.5" fill="none" stroke="#8a8a80" stroke-width="1.3"/>
<path d="M309.9,686.9 L312.2,687.5 L317.3,686.3 L320.1,683.7 L325.0,681.8 L329.2,680.5 L335.4,676.9 L341.8,671.6 L351.6,662.9 L358.3,658.3 L361.1,655.7 L364.2,653.6 L366.0,651.2 L369.8,647.1 L371.0,644.7 L371.0,642.3" fill="none" stroke="#8a8a80" stroke-width="1.3"/>
<path d="M309.8,686.9 L309.9,686.9" fill="none" stroke="#8a8a80" stroke-width="1.3"/>
<path d="M309.9,682.0 L310.1,681.5" fill="none" stroke="#8a8a80" stroke-width="1.3"/>
<path d="M310.1,681.5 L311.9,675.9 L314.7,672.3 L316.2,664.8 L329.7,610.0 L346.8,548.0 L372.5,550.7" fill="none" stroke="#8a8a80" stroke-width="1.3"/>
<path d="M310.1,681.5 L312.4,608.1 L316.0,502.9 L320.8,346.8 L320.8,346.0" fill="none" stroke="#8a8a80" stroke-width="1.3"/>
<path d="M370.6,642.7 L370.8,642.6 L370.9,642.4 L371.0,642.3" fill="none" stroke="#8a8a80" stroke-width="1.3"/>
<path d="M371.0,642.3 L371.5,641.9 L371.9,641.5 L372.3,641.1 L372.6,640.6 L372.9,640.2 L373.2,639.7 L373.5,639.3 L373.7,638.8 L373.9,638.3 L374.1,637.8 L374.2,637.3 L374.3,636.8 L374.4,635.7 L374.3,634.5 L374.3,633.4 L375.4,630.3 L377.1,627.4 L378.3,624.3 L378.4,623.5 L378.5,622.7 L378.6,621.9 L379.0,621.1 L379.6,620.4 L380.3,619.8 L381.0,619.1 L381.5,618.4 L383.0,615.3 L384.1,611.9 L385.3,608.6 L387.4,604.7 L389.7,601.0 L391.9,597.1 L393.5,593.8 L394.9,590.4 L396.2,587.0 L397.4,583.3 L398.4,579.5 L399.6,575.8 L400.0,575.0 L400.4,574.1 L400.7,573.2" fill="none" stroke="#8a8a80" stroke-width="1.3"/>
<path d="M371.0,642.3 L372.5,551.9 L372.5,550.7" fill="none" stroke="#8a8a80" stroke-width="1.3"/>
<path d="M311.2,637.6 L182.7,631.4" fill="none" stroke="#8a8a80" stroke-width="1.3"/>
<path d="M182.7,631.4 L182.6,631.4" fill="none" stroke="#d1341f" stroke-width="3" opacity="0.9"/>
<path d="M182.7,631.4 L186.4,584.6" fill="none" stroke="#d1341f" stroke-width="3" opacity="0.9"/>
<path d="M260.6,588.8 L186.4,584.6" fill="none" stroke="#8a8a80" stroke-width="1.3"/>
<path d="M435.1,587.3 L435.1,587.3" fill="none" stroke="#8a8a80" stroke-width="1.3"/>
<path d="M435.1,587.3 L438.2,579.7 L442.0,566.0 L445.3,553.9 L447.5,547.8 L444.4,527.6 L443.7,522.9 L444.3,519.7 L442.8,517.1 L441.8,516.1 L440.9,515.6 L440.1,514.7 L440.0,513.9 L439.7,512.6 L439.1,512.2 L438.3,511.6 L437.4,510.9 L437.0,510.1 L436.7,508.8 L436.7,507.5 L437.0,506.9 L437.7,506.0 L438.1,505.3 L438.6,504.4 L438.8,502.5 L439.3,500.7 L440.8,499.7 L441.2,498.0 L441.7,497.1 L441.8,495.7 L441.8,492.9 L441.9,491.9 L441.9,490.7 L441.9,489.5 L442.3,486.1 L442.4,483.7 L442.5,482.7 L443.0,481.0 L443.3,480.1 L444.1,477.7 L445.2,476.0 L446.9,472.8 L447.5,470.2 L449.2,464.1 L452.5,459.1 L454.4,455.5 L455.5,453.2 L456.8,451.4 L457.3,450.4 L458.1,449.0 L459.1,447.0 L460.9,446.2 L461.8,444.3 L463.6,443.4 L463.9,441.2 L464.9,440.2 L465.7,439.3 L466.8,438.1 L469.6,436.5 L471.5,436.5 L473.0,435.1 L475.6,433.2 L481.1,430.2 L485.5,427.3 L486.1,426.9" fill="none" stroke="#8a8a80" stroke-width="1.3"/>
<path d="M186.4,584.6 L186.3,584.6" fill="none" stroke="#d1341f" stroke-width="3" opacity="0.9"/>
<path d="M186.4,584.6 L186.6,582.6 L189.2,537.9" fill="none" stroke="#d1341f" stroke-width="3" opacity="0.9"/>
<path d="M400.7,573.2 L435.1,587.3" fill="none" stroke="#8a8a80" stroke-width="1.3"/>
<path d="M400.7,573.2 L401.5,571.4 L402.4,569.6 L403.4,567.8 L404.8,565.8 L406.3,563.8 L407.6,561.7 L408.5,560.0 L409.3,558.3 L410.0,556.5 L410.5,554.6" fill="none" stroke="#8a8a80" stroke-width="1.3"/>
<path d="M400.7,573.2 L400.7,573.2" fill="none" stroke="#8a8a80" stroke-width="1.3"/>
<path d="M410.4,555.1 L410.6,554.9 L410.7,554.8 L410.8,554.6" fill="none" stroke="#8a8a80" stroke-width="1.3"/>
<path d="M410.8,554.6 L411.2,554.7" fill="none" stroke="#8a8a80" stroke-width="1.3"/>
<path d="M410.8,554.6 L411.3,554.0 L411.8,553.4 L412.3,552.9 L412.8,552.3 L413.2,551.7 L413.6,551.1 L414.0,550.6 L414.4,550.0 L414.8,549.4 L415.1,548.9 L415.4,548.4 L415.7,547.8 L415.9,547.3 L416.2,546.8 L416.4,546.2 L416.6,545.7 L416.8,545.2 L417.0,544.7 L417.1,544.2 L417.2,543.7 L417.3,543.3 L417.4,542.8 L417.4,542.3 L417.5,541.8 L417.5,541.4 L417.5,540.9 L417.4,540.5 L417.4,540.0 L417.3,539.6 L417.2,539.2 L417.1,538.7 L417.0,538.3 L416.8,537.9 L416.6,537.5 L416.4,537.1 L416.2,536.7 L416.0,536.3 L415.7,535.9 L415.4,535.5 L414.7,534.9 L414.0,534.2 L413.3,533.5 L412.6,531.5 L412.5,529.1 L412.2,526.9 L411.2,525.1 L410.8,524.9 L410.4,524.6 L410.0,524.3 L409.3,523.7 L408.7,523.0 L408.1,522.2 L407.7,521.4 L407.3,520.5 L407.0,519.6 L406.7,518.6 L406.5,517.6 L406.4,516.5 L406.3,515.5 L406.3,514.4 L406.3,513.3 L406.4,512.3 L406.4,511.2 L406.6,510.2 L406.7,509.1 L406.9,508.2 L407.1,507.3 L407.4,506.0 L407.8,504.8 L408.3,503.5 L408.8,502.3 L409.4,501.2 L410.1,500.0 L410.8,498.9 L411.6,497.9 L412.4,496.9 L413.3,496.0 L416.1,494.1 L419.3,492.5 L422.1,490.6 L423.2,489.4 L424.2,488.1 L425.1,486.7 L426.0,485.3 L426.8,483.8 L427.5,482.3 L428.5,479.6 L429.2,476.8 L429.7,473.9 L430.1,471.0 L430.4,468.1 L430.4,465.0 L430.0,461.7 L429.3,458.4 L428.6,455.0 L428.1,451.8 L427.9,448.7 L428.3,445.8 L429.6,443.2 L430.6,441.9 L431.7,440.6 L432.9,439.4 L437.4,436.3 L442.6,433.9 L447.4,431.1 L450.5,428.2 L453.4,425.2 L456.6,422.4 L459.0,420.8 L461.4,419.4 L464.0,418.1 L466.6,417.0 L469.3,416.1 L472.1,415.3 L474.9,414.5 L476.5,413.9 L478.0,413.2 L479.6,412.5" fill="none" stroke="#8a8a80" stroke-width="1.3"/>
<path d="M410.5,554.6 L410.8,554.6" fill="none" stroke="#8a8a80" stroke-width="1.3"/>
<path d="M410.5,554.6 L410.6,554.5" fill="none" stroke="#8a8a80" stroke-width="1.3"/>
<path d="M372.5,550.7 L410.5,554.6" fill="none" stroke="#8a8a80" stroke-width="1.3"/>
<path d="M372.5,550.7 L375.1,442.7 L395.4,390.2 L410.3,353.0" fill="none" stroke="#8a8a80" stroke-width="1.3"/>
<path d="M314.3,547.4 L189.2,537.9" fill="none" stroke="#8a8a80" stroke-width="1.3"/>
<path d="M189.2,537.9 L188.9,537.9" fill="none" stroke="#d1341f" stroke-width="3" opacity="0.9"/>
<path d="M189.2,537.9 L190.2,521.3 L193.9,472.2 L196.5,437.2 L196.6,435.1" fill="none" stroke="#d1341f" stroke-width="3" opacity="0.9"/>
<path d="M317.8,442.1 L196.6,435.1" fill="none" stroke="#8a8a80" stroke-width="1.3"/>
<path d="M586.2,438.1 L586.3,438.0 L586.3,437.9 L586.4,437.8 L586.4,437.7 L586.4,437.6 L586.5,437.5 L586.5,437.4 L586.5,437.3 L586.6,437.2 L586.6,437.1 L586.6,437.0 L586.6,436.9 L586.6,436.8 L586.6,436.7 L586.6,436.6 L586.6,436.5 L586.6,436.5 L586.6,436.4 L586.6,436.3 L586.6,436.2 L586.5,436.1 L586.5,436.1 L586.5,436.0 L586.4,435.9 L586.4,435.8 L586.4,435.8 L586.3,435.7 L586.2,435.6 L586.1,435.5 L586.0,435.4 L585.8,435.1 L585.7,434.8 L585.6,434.5 L585.5,434.1 L585.5,433.8 L585.5,433.4 L585.5,433.0 L585.5,432.7 L585.4,432.3 L585.3,430.8 L585.3,429.3 L585.1,427.7 L584.7,426.5 L584.3,425.4 L584.0,424.1 L584.0,423.7 L583.9,423.2 L583.9,422.8 L584.0,422.3 L584.0,421.9 L584.1,421.4 L584.3,421.0 L584.5,420.5 L584.7,420.1 L584.7,419.8 L584.8,419.4 L584.8,419.0 L584.7,418.7 L584.7,418.3 L584.7,417.9 L584.0,416.0 L582.8,414.2 L582.0,412.3 L582.0,411.4 L582.0,410.5 L581.9,409.6 L581.8,409.0 L581.7,408.3 L581.5,407.6 L581.3,407.0 L581.0,406.3 L580.7,405.7 L580.4,405.2 L580.1,404.6 L579.7,404.1 L579.3,403.6" fill="none" stroke="#8a8a80" stroke-width="1.3"/>
<path d="M196.6,435.1 L196.4,435.1" fill="none" stroke="#d1341f" stroke-width="3" opacity="0.9"/>
<path d="M196.6,435.1 L200.6,381.8 L203.8,340.2" fill="none" stroke="#d1341f" stroke-width="3" opacity="0.9"/>
<path d="M486.1,426.9 L486.2,427.0" fill="none" stroke="#8a8a80" stroke-width="1.3"/>
<path d="M486.1,426.9 L491.0,423.5 L498.2,420.0 L503.5,419.6 L504.9,417.0 L507.2,412.4 L511.4,409.4 L518.2,403.1 L524.6,398.4 L525.4,392.6 L527.6,388.6 L531.1,382.6 L531.5,375.2 L533.1,367.6 L540.8,347.4 L539.4,339.6 L540.2,336.7 L544.5,329.8 L544.5,327.7 L545.3,323.1 L545.8,321.3 L546.9,314.3 L547.3,313.3" fill="none" stroke="#8a8a80" stroke-width="1.3"/>
<path d="M479.6,412.5 L486.1,426.9" fill="none" stroke="#8a8a80" stroke-width="1.3"/>
<path d="M479.6,412.5 L481.2,411.8 L482.7,411.0 L484.2,410.2 L485.7,409.3 L487.1,408.3 L488.4,407.2 L489.6,406.1 L490.7,404.9 L491.9,403.4 L493.0,401.7 L493.9,400.0 L494.9,398.2 L495.9,395.6 L496.6,392.6 L497.1,389.6 L497.7,386.7 L498.7,384.1 L500.3,382.0 L502.0,380.9 L503.9,379.9 L505.7,378.7 L506.4,378.0 L507.1,377.3 L507.8,376.6 L508.4,375.8 L508.9,375.0 L509.4,374.1 L509.9,373.3 L510.1,372.5 L510.1,371.7 L510.1,370.8 L510.0,369.9 L509.8,368.9 L509.5,367.9 L509.3,366.9 L509.1,365.9 L508.9,365.0 L508.7,364.2 L508.7,363.4 L508.7,362.7 L508.9,362.2 L509.3,361.8 L509.9,361.6 L510.9,361.6 L511.9,361.6 L512.1,361.6 L512.2,361.5 L512.3,361.4 L512.4,361.3 L512.5,361.1 L512.6,360.9 L512.7,360.8 L512.7,360.6 L512.8,360.3 L512.8,360.1 L512.9,359.9 L512.9,359.6 L512.9,359.3 L512.9,359.1 L512.9,358.8 L512.9,358.5 L512.9,358.2 L512.9,357.9 L512.9,357.7 L512.8,357.4 L512.8,357.1 L512.8,356.8 L512.7,356.5 L512.7,356.3 L512.6,356.0 L512.6,355.8 L512.5,355.5 L512.5,355.3 L512.4,355.1 L512.4,354.9 L512.3,354.7 L512.3,354.6 L512.2,354.4 L512.2,354.3 L512.1,354.2 L512.1,354.2 L512.0,354.1 L512.0,354.1 L511.9,354.1 L511.9,354.2 L511.8,354.3 L511.7,354.4 L511.6,354.6 L511.6,354.8 L511.5,355.0 L511.4,355.2 L511.3,355.5 L511.2,355.8 L511.0,356.1 L510.9,356.5 L510.8,356.9 L510.7,357.3 L510.5,357.7 L510.4,358.2 L510.3,358.7" fill="none" stroke="#8a8a80" stroke-width="1.3"/>
<path d="M479.5,412.4 L479.6,412.5" fill="none" stroke="#8a8a80" stroke-width="1.3"/>
<path d="M579.3,403.6 L579.2,403.5 L579.2,403.5 L579.1,403.4" fill="none" stroke="#8a8a80" stroke-width="1.3"/>
<path d="M579.3,403.6 L579.6,403.5 L579.9,403.4 L580.2,403.3 L580.5,403.2 L580.8,403.1 L581.1,402.9 L581.4,402.7 L581.7,402.5 L582.0,402.2 L582.3,402.0 L582.6,401.7 L582.9,401.3 L583.2,400.9 L583.5,400.4 L583.8,399.9 L584.0,399.5 L584.3,399.0 L584.4,398.5 L584.6,397.9 L584.8,397.1 L584.9,396.3 L584.9,395.4 L584.9,394.5 L585.0,392.6 L585.1,390.7 L584.9,388.7 L584.3,386.0 L583.4,383.3 L582.9,380.6 L582.9,380.2 L582.8,379.8 L582.8,379.4 L582.8,379.1 L582.8,378.7 L582.8,378.3 L582.9,378.0 L583.0,377.8 L583.1,377.6 L583.3,377.4 L583.4,377.2 L583.7,376.8 L584.0,376.5 L584.3,376.1 L584.6,375.8 L584.9,375.6 L585.3,375.3 L585.6,375.1 L586.4,374.8 L587.2,374.8 L588.0,374.9 L588.9,375.2 L589.8,375.5 L590.7,375.9 L591.7,376.2 L592.6,376.5 L593.5,376.6 L595.6,376.9 L597.8,377.0 L600.0,377.0 L602.2,376.9 L604.4,376.6 L604.6,376.6 L604.9,376.6 L605.2,376.6 L605.5,376.5 L605.8,376.5 L606.1,376.5 L606.5,376.5 L606.8,376.5 L607.1,376.4 L607.5,376.4 L607.8,376.4 L608.1,376.4 L608.5,376.3 L608.8,376.3 L609.1,376.3 L609.3,376.2 L609.6,376.1 L609.8,376.1 L610.0,376.0 L610.2,375.9 L610.3,375.8 L610.5,375.7 L610.5,375.6 L610.6,375.4 L610.6,375.3 L610.5,375.1 L610.2,374.6 L609.8,374.1 L609.8,374.0 L609.7,373.8 L609.7,373.7 L609.6,373.5 L609.6,373.3 L609.5,373.2 L609.5,373.0 L609.5,372.8 L609.5,372.7 L609.4,372.5 L609.4,372.3 L609.4,372.2 L609.4,372.0 L609.5,371.9 L609.5,371.7 L609.5,371.6 L609.6,371.5 L609.7,371.4 L609.7,371.3 L609.8,371.2 L610.3,371.0 L610.9,370.8 L611.1,370.6 L611.2,370.3 L611.3,369.9 L611.4,369.5 L611.5,369.1 L611.6,368.7 L611.7,368.3 L612.4,367.4 L613.3,366.6 L614.1,365.7 L614.4,365.1 L614.8,364.4 L615.1,363.7 L616.4,362.3 L618.0,361.3 L619.7,360.3 L621.2,359.1 L622.1,358.2 L623.0,357.2 L623.8,356.2 L624.8,354.9 L625.7,353.5 L626.5,352.0 L627.2,350.5 L627.9,349.0 L628.3,347.8 L628.7,346.6 L629.1,345.3" fill="none" stroke="#8a8a80" stroke-width="1.3"/>
<path d="M523.8,399.5 L525.9,399.8 L527.9,400.3 L529.9,400.8 L533.3,402.5 L536.5,404.5 L540.0,406.0 L540.7,406.2 L541.5,406.3 L542.3,406.5 L545.2,406.5 L548.2,406.3 L551.0,406.5 L551.9,406.7 L552.7,407.1 L553.6,407.3 L554.8,407.5 L556.1,407.6 L557.3,407.7 L558.6,407.7 L559.9,407.7 L561.1,407.7 L563.7,406.8 L566.2,405.4 L568.8,404.4 L571.1,404.2 L573.4,404.2 L575.7,404.1 L576.9,403.9 L578.1,403.8 L579.3,403.6" fill="none" stroke="#8a8a80" stroke-width="1.3"/>
<path d="M687.8,362.1 L652.4,389.0 L649.9,387.9 L646.2,391.8 L645.9,394.4 L511.8,494.1 L479.3,612.6 L460.6,684.7 L375.9,786.7 L335.3,792.3" fill="none" stroke="#d1341f" stroke-width="3" opacity="0.9"/>
<path d="M687.8,362.1 L687.8,362.2" fill="none" stroke="#d1341f" stroke-width="3" opacity="0.9"/>
<path d="M509.9,359.1 L509.9,359.0 L509.9,359.0 L509.9,358.9" fill="none" stroke="#8a8a80" stroke-width="1.3"/>
<path d="M509.9,358.9 L512.2,359.0" fill="none" stroke="#8a8a80" stroke-width="1.3"/>
<path d="M509.9,358.9 L509.8,358.2 L509.8,357.6 L509.8,356.9 L509.9,356.3 L509.9,355.6 L510.1,355.0 L510.2,354.4 L510.4,353.8 L510.8,352.9 L511.3,352.0 L511.8,351.1 L511.9,350.5 L512.1,350.0 L512.3,349.4 L512.4,348.7 L512.5,348.1 L512.6,347.5 L512.6,346.8 L512.6,346.2 L512.6,345.6 L512.5,345.1 L512.4,344.5 L512.2,344.1 L512.0,343.6 L509.8,342.4 L506.7,341.7 L504.8,340.7 L504.8,340.2 L504.9,339.6 L505.3,339.0 L505.8,338.3 L506.5,337.6 L507.2,336.9 L507.9,336.1 L508.6,335.4 L509.3,334.6 L509.8,333.8 L510.2,333.0 L510.3,332.3 L510.5,331.5 L510.7,330.9 L511.7,329.7 L513.2,328.7 L514.4,327.7 L515.3,325.2 L515.2,322.2 L515.0,319.2 L515.5,316.5 L517.7,313.4 L520.7,310.7 L523.2,307.7 L524.3,304.3 L525.0,300.6 L525.9,297.0 L526.9,294.8 L528.2,292.7 L529.4,290.5 L530.1,288.2 L530.2,286.8 L530.1,285.2 L530.1,283.7 L531.2,280.2 L533.1,276.9 L535.2,273.6 L536.8,270.1 L537.5,267.7 L538.2,265.2 L538.6,262.7 L538.9,260.5 L539.0,258.2 L539.0,256.0 L538.9,253.7 L538.6,251.5 L538.5,250.7 L538.3,249.9 L538.1,249.1" fill="none" stroke="#8a8a80" stroke-width="1.3"/>
<path d="M410.3,353.0 L442.0,355.4 L509.9,358.9" fill="none" stroke="#8a8a80" stroke-width="1.3"/>
<path d="M410.3,353.0 L431.1,301.3" fill="none" stroke="#8a8a80" stroke-width="1.3"/>
<path d="M659.3,350.4 L660.9,351.4 L661.9,353.4 L663.9,356.5 L669.4,358.9 L672.4,358.4 L675.1,361.1 L677.7,361.8 L679.0,360.8 L681.3,359.9 L685.7,360.8 L687.8,362.1" fill="none" stroke="#8a8a80" stroke-width="1.3"/>
<path d="M659.0,350.1 L669.3,375.7" fill="none" stroke="#8a8a80" stroke-width="1.3"/>
<path d="M659.0,350.1 L659.1,350.1 L659.2,350.1 L659.3,350.1" fill="none" stroke="#8a8a80" stroke-width="1.3"/>
<path d="M320.3,346.8 L320.5,346.6 L320.7,346.3 L320.8,346.0" fill="none" stroke="#8a8a80" stroke-width="1.3"/>
<path d="M321.1,346.6 L410.3,353.0" fill="none" stroke="#8a8a80" stroke-width="1.3"/>
<path d="M320.8,346.0 L323.2,271.3" fill="none" stroke="#8a8a80" stroke-width="1.3"/>
<path d="M320.8,346.0 L321.4,345.4 L321.9,344.8 L322.5,344.2 L323.1,343.6 L323.8,343.1 L324.4,342.7 L325.2,342.3 L325.9,342.0 L326.4,341.5 L326.7,340.7 L326.8,339.7 L326.6,338.6 L326.5,337.5 L326.7,336.4 L326.8,336.0 L327.0,335.6 L327.3,335.1 L327.5,334.7 L327.7,334.3 L329.8,333.1 L332.5,332.5 L334.7,331.4 L335.3,330.5 L335.9,329.4 L336.5,328.5 L337.1,327.8 L337.8,327.2 L338.5,326.6 L339.3,326.0 L340.1,325.5 L341.0,325.1 L341.8,324.7 L342.7,324.3 L343.6,324.0 L344.5,323.8 L345.3,323.7 L348.4,324.0 L351.5,325.0 L354.6,325.5 L356.7,325.2 L358.7,324.6 L360.8,324.2 L364.9,324.3 L369.1,324.9 L373.0,324.7 L376.0,323.2 L378.8,321.2 L381.8,319.7 L384.4,319.3 L387.1,319.2 L389.8,318.9 L391.7,318.3 L393.5,317.7 L395.4,317.0 L401.3,313.9 L406.9,310.1 L412.7,306.6 L414.5,305.7 L416.2,304.8 L418.0,304.0 L419.9,303.4 L420.5,303.3 L421.2,303.3 L421.9,303.2 L422.6,303.1 L423.1,302.9 L423.5,302.5 L423.7,302.1 L423.8,301.5 L423.8,300.8 L423.8,300.0 L423.7,299.3 L423.6,298.5 L423.5,297.6 L423.5,296.9 L423.5,296.1 L423.6,295.4 L424.0,294.3 L424.4,293.2 L424.9,292.2 L425.5,291.1 L426.2,290.1 L426.9,289.2 L427.6,288.2 L427.9,287.8 L428.3,287.4 L428.7,287.1 L429.1,286.7 L429.5,286.4 L431.0,285.8 L432.4,285.3 L433.0,284.7 L433.4,283.8 L433.6,282.8 L433.8,281.8 L434.0,280.7 L434.2,279.6 L434.5,278.7 L435.3,277.4 L436.2,276.2 L436.9,274.9 L437.1,274.4 L437.1,273.8 L437.1,273.1 L437.1,272.5 L437.0,271.8 L437.0,271.2 L437.0,270.6 L437.2,270.1 L437.4,269.7 L437.7,269.3 L437.8,269.3 L437.9,269.3 L438.0,269.2 L438.1,269.2" fill="none" stroke="#8a8a80" stroke-width="1.3"/>
<path d="M320.5,346.0 L259.3,342.9" fill="none" stroke="#8a8a80" stroke-width="1.3"/>
<path d="M629.1,344.9 L629.1,344.6 L629.2,344.3 L629.2,344.1 L629.3,343.8 L629.4,343.5 L629.5,343.3 L629.5,343.0 L629.6,342.8 L629.8,342.6 L629.9,342.4 L630.0,342.2 L630.1,342.0 L630.3,341.8 L630.5,341.7 L630.6,341.5 L630.8,341.4 L631.0,341.3 L631.3,341.1 L631.6,341.0 L631.8,340.9 L632.1,340.8 L632.4,340.8 L632.7,340.7 L633.0,340.7 L633.3,340.7 L633.6,340.7 L633.9,340.7 L634.2,340.7 L634.5,340.8 L634.7,340.9 L635.9,341.8 L637.1,342.9 L637.4,343.0 L637.7,343.2 L638.0,343.3 L638.3,343.4 L638.7,343.5 L639.0,343.5 L639.3,343.6 L639.7,343.6 L640.0,343.5 L640.3,343.4 L640.6,343.3 L640.9,343.2 L641.2,343.1 L641.5,343.0 L641.7,343.1 L641.8,343.2 L641.9,343.4 L642.0,343.6 L642.0,343.8 L642.0,344.1 L642.0,344.5 L642.0,344.8 L642.0,345.1 L642.1,345.4 L642.1,345.7 L642.2,346.0 L642.4,346.4 L642.7,346.8 L643.1,347.1 L643.5,347.4 L643.9,347.7 L644.3,348.0 L644.8,348.3 L645.2,348.5 L645.7,348.8 L646.2,349.0 L646.6,349.2 L647.6,349.6 L648.6,349.9 L649.6,350.1 L650.6,350.3 L651.7,350.4 L652.8,350.5 L653.8,350.6 L655.1,350.6 L656.4,350.5 L657.7,350.3 L659.0,350.1" fill="none" stroke="#8a8a80" stroke-width="1.3"/>
<path d="M259.3,342.9 L257.2,438.2" fill="none" stroke="#8a8a80" stroke-width="1.3"/>
<path d="M259.3,342.9 L203.8,340.2" fill="none" stroke="#8a8a80" stroke-width="1.3"/>
<path d="M203.8,340.2 L203.5,340.2" fill="none" stroke="#d1341f" stroke-width="3" opacity="0.9"/>
<path d="M203.8,340.2 L204.2,334.1 L208.4,281.5 L210.3,254.5" fill="none" stroke="#d1341f" stroke-width="3" opacity="0.9"/>
<path d="M467.0,316.5 L467.1,316.5 L467.2,316.5 L467.3,316.5 L467.4,316.5 L467.5,316.5 L467.6,316.5 L467.7,316.5 L467.8,316.5 L467.9,316.6 L468.0,316.6 L468.1,316.6 L468.1,316.6 L468.2,316.7 L468.3,316.7 L468.3,316.8 L468.4,316.8 L468.5,316.8 L468.5,316.9 L468.6,317.0 L468.6,317.0 L468.8,317.7 L468.9,318.3 L469.0,318.5 L469.1,318.6 L469.2,318.7 L469.3,318.8 L469.4,318.9 L469.5,318.9 L469.7,319.0 L469.8,319.1 L469.9,319.1 L470.1,319.2 L470.3,319.2 L470.5,319.3 L470.6,319.3 L470.8,319.3 L471.0,319.3 L471.2,319.3 L471.4,319.3 L471.6,319.3 L471.7,319.2 L471.9,319.2 L472.1,319.1 L472.2,319.1 L472.3,319.0 L472.4,319.0 L472.5,318.9 L472.6,318.9 L472.7,318.8 L472.8,318.7 L472.9,318.7 L473.0,318.6 L473.0,318.5 L473.1,318.4 L473.1,318.3 L473.1,317.9 L473.1,317.5 L473.7,317.1 L474.2,316.7 L474.2,316.6 L474.2,316.5 L474.2,316.3 L474.2,316.2 L474.2,316.2 L474.3,316.2 L474.3,316.1 L474.3,316.1 L474.4,316.1 L474.4,316.1 L474.5,316.1 L474.5,316.1 L474.6,316.1 L474.6,316.1 L474.7,316.1 L474.8,316.1 L474.8,316.1 L474.9,316.1 L474.9,316.1 L475.0,316.1 L475.1,316.1 L475.1,316.2 L475.2,316.2 L475.2,316.2 L475.3,316.2 L475.5,316.4 L475.8,316.6 L476.1,316.7 L476.8,316.8 L477.7,316.7 L478.5,316.7 L478.9,317.0 L479.3,317.4 L479.8,317.8 L480.4,318.1 L481.1,318.2 L481.8,318.3 L482.5,318.4 L483.1,318.5 L483.5,318.9 L483.8,319.5 L483.8,320.3 L483.9,321.1 L484.1,321.8 L484.8,322.9 L485.9,323.9 L486.7,325.0 L487.0,325.9 L487.2,326.9 L487.4,327.8 L487.8,328.5 L488.2,328.7 L488.8,328.9 L489.4,328.8 L490.2,328.7 L490.9,328.5 L491.7,328.3 L492.5,328.2 L493.2,328.1 L493.9,328.2 L494.9,328.5 L495.9,328.9 L496.8,329.3 L497.5,329.4 L498.1,329.5 L498.7,329.5 L499.6,329.4 L500.6,329.1 L501.5,328.8 L502.4,328.4 L503.3,328.3 L504.2,328.5 L504.5,328.7 L504.8,328.9 L505.0,329.0 L505.9,329.2 L506.8,329.1 L507.8,328.9 L508.7,328.8 L509.5,328.8 L510.2,329.1 L510.3,329.3 L510.4,329.5 L510.5,329.6 L510.6,329.8 L510.7,330.0 L510.8,330.2" fill="none" stroke="#8a8a80" stroke-width="1.3"/>
<path d="M547.3,313.3 L547.3,313.2" fill="none" stroke="#8a8a80" stroke-width="1.3"/>
<path d="M547.3,313.3 L547.7,312.2 L543.7,307.2 L543.7,304.0 L546.1,299.7 L548.0,296.8 L552.5,290.1 L553.6,286.4 L554.4,277.6 L555.2,272.3 L555.4,269.1 L557.0,258.2 L557.0,252.6 L557.1,251.9" fill="none" stroke="#8a8a80" stroke-width="1.3"/>
<path d="M431.1,301.3 L432.0,301.8 L433.0,302.2 L433.3,302.8 L433.6,303.5 L434.0,304.2 L434.2,304.3 L434.4,304.5 L434.7,304.7 L434.9,304.8 L435.1,304.9 L435.3,305.0 L435.5,305.1 L435.7,305.1 L435.9,305.1 L436.1,305.2 L436.3,305.2 L436.4,305.3 L436.5,305.4 L436.6,305.4 L436.6,305.5 L436.7,305.6 L436.7,305.7 L436.8,305.8 L436.8,305.8 L436.9,305.8 L437.0,305.8 L437.1,305.8 L437.2,305.8 L437.3,305.8 L437.5,305.9 L437.6,306.0 L437.7,306.1 L437.8,306.2 L437.9,306.4 L438.1,306.5 L438.2,306.7 L438.3,306.8 L438.9,307.3 L439.6,307.9 L440.4,308.3 L441.1,308.8 L441.9,309.2 L442.7,309.5 L443.9,309.8 L445.3,309.8 L446.6,309.8 L447.9,310.0 L449.0,310.5 L449.3,310.9 L449.6,311.4 L449.9,311.9 L450.2,312.3 L450.6,312.6 L451.7,312.6 L452.8,312.6 L453.0,312.7 L453.2,312.8 L453.3,312.9 L453.9,313.1 L454.5,313.1 L455.2,313.0 L455.9,312.8 L456.6,312.6 L457.3,312.4 L457.9,312.3 L458.4,312.4 L458.8,312.5 L459.1,312.9 L459.2,313.2 L459.3,313.5 L460.3,313.7 L461.7,313.2 L462.7,313.3 L462.9,313.8 L463.2,314.3 L463.3,314.5 L463.5,314.7 L463.7,314.9 L463.9,315.0 L464.1,315.1 L464.3,315.3 L464.6,315.4 L464.8,315.5 L465.0,315.6 L465.3,315.8 L465.6,315.9 L466.0,316.0 L466.3,316.0 L466.6,316.1 L467.0,316.2" fill="none" stroke="#8a8a80" stroke-width="1.3"/>
<path d="M431.1,301.3 L440.4,278.1 L438.1,269.2" fill="none" stroke="#8a8a80" stroke-width="1.3"/>
<path d="M423.9,298.6 L424.2,298.5 L424.4,298.4 L424.6,298.3 L424.9,298.2 L425.1,298.1 L425.4,298.1 L425.6,298.0 L425.8,297.9 L426.0,297.9 L426.2,297.8 L426.5,297.8 L426.7,297.8 L426.9,297.7 L427.1,297.7 L427.3,297.7 L427.4,297.7 L427.6,297.7 L427.8,297.7 L428.0,297.8 L428.2,297.8 L428.3,297.8 L428.5,297.9 L428.7,297.9 L428.8,298.0 L429.0,298.0 L429.1,298.1 L429.2,298.2 L429.4,298.3 L429.5,298.4 L429.6,298.5 L429.8,298.6 L429.9,298.7 L430.0,298.8 L430.1,298.9 L430.3,299.1 L430.4,299.3 L430.5,299.6 L430.7,299.8 L430.8,300.0 L430.8,300.4 L430.9,300.9 L431.0,301.2 L431.0,301.3 L431.0,301.3 L431.0,301.3 L431.1,301.3" fill="none" stroke="#8a8a80" stroke-width="1.3"/>
<path d="M636.1,294.0 L636.0,294.2 L636.0,294.4 L636.0,294.5 L635.9,294.7 L635.9,294.8 L635.8,295.0 L635.8,295.1 L635.7,295.3 L635.6,295.4 L635.5,295.5 L635.5,295.6 L635.4,295.8 L635.3,295.9 L635.2,296.0 L635.1,296.0 L635.0,296.1 L634.9,296.2 L634.7,296.3 L634.4,296.4 L634.2,296.5 L633.9,296.5 L633.6,296.5 L633.4,296.5 L633.1,296.5 L632.8,296.5 L631.5,296.3 L630.3,295.7 L629.1,294.9 L627.8,294.2 L626.5,293.6 L625.1,293.4 L623.7,293.3 L622.3,293.0 L621.5,292.6 L620.8,292.1 L620.1,291.8 L619.5,291.6 L618.9,291.6 L618.3,291.5 L617.6,291.6 L617.0,291.6 L616.4,291.7 L615.8,291.8 L613.7,292.4 L611.6,293.3 L609.5,293.8 L609.1,293.9 L608.8,293.9 L608.4,294.0 L608.0,294.0 L607.6,294.0 L607.3,294.0 L606.9,293.9 L606.6,293.8 L606.2,293.6 L605.8,293.2 L605.4,293.0 L605.0,292.8 L604.5,292.6 L604.1,292.5 L603.6,292.4 L603.1,292.3 L602.7,292.3 L600.4,292.8 L598.2,294.1 L596.0,295.3 L594.0,295.5 L592.3,294.3 L590.6,293.1 L590.1,293.1 L589.6,293.0 L589.2,293.0 L588.4,292.4 L587.9,291.4 L587.4,290.3 L586.7,289.6 L586.3,289.4 L585.8,289.2 L585.5,289.0 L585.0,288.4 L584.6,287.9 L583.8,287.7 L582.9,288.1 L581.9,288.9 L580.8,289.8 L579.8,290.4 L578.8,290.4 L578.5,290.3 L578.3,290.2 L578.0,290.0 L577.7,289.8 L577.5,289.6 L577.2,289.4 L577.0,289.1 L576.8,288.9 L576.5,288.4 L576.2,287.8 L575.9,287.3 L574.9,286.8 L573.8,286.6 L572.7,286.1 L572.3,285.8 L572.0,285.5 L571.7,285.1 L571.4,284.7 L571.1,284.3 L570.8,283.9 L570.5,283.4 L570.1,282.8 L569.9,282.2" fill="none" stroke="#8a8a80" stroke-width="1.3"/>
<path d="M569.9,282.2 L569.9,282.5 L569.9,282.8 L569.9,283.1 L569.8,283.4 L569.8,283.7 L569.7,284.0 L569.7,284.2 L569.6,284.5 L569.5,284.7 L569.4,285.0 L569.2,285.2 L569.1,285.5 L568.9,285.7 L568.8,285.9 L568.6,286.1 L568.4,286.3 L568.2,286.5 L568.1,286.7 L568.0,286.9 L567.9,287.1 L567.8,287.3 L567.8,287.5 L567.7,287.8 L567.7,288.0 L567.8,288.3 L567.8,288.5 L567.8,288.8 L567.8,289.1 L567.9,289.3 L567.9,289.6 L567.9,289.9 L568.0,290.2 L568.0,290.5 L568.1,290.9 L568.2,291.2 L568.3,291.5 L568.4,291.8 L569.3,292.6 L570.1,293.5 L570.0,295.1 L569.9,296.7 L570.2,297.0 L570.5,297.3 L570.8,297.6 L571.1,298.0 L571.4,298.5 L571.5,299.1 L571.7,299.7 L571.7,300.3 L571.7,300.9 L571.7,301.5 L571.6,302.1 L571.6,302.8 L571.5,303.4 L571.4,304.0 L571.2,304.7 L571.1,305.2 L570.5,307.3 L569.5,309.3 L568.9,311.4 L568.9,312.3 L569.0,313.2 L568.9,314.1 L568.9,314.6 L568.8,315.0 L568.7,315.5 L568.5,316.0 L568.4,316.5 L568.2,317.0 L568.0,317.4 L567.8,317.8 L567.5,318.2 L567.2,318.6 L566.9,318.9 L566.6,319.1 L566.2,319.3 L565.9,319.5 L565.5,319.7 L565.1,319.8 L564.7,320.0 L564.3,320.1 L563.9,320.1 L563.5,320.2 L563.1,320.2 L562.6,320.3 L562.2,320.2 L561.7,320.2 L561.3,320.1 L560.9,320.1 L559.6,319.4 L558.4,318.5 L557.2,317.8 L555.9,317.7 L554.5,317.8 L553.2,317.7 L553.0,317.6 L552.7,317.5 L552.4,317.3 L552.1,317.2 L551.8,317.0 L551.5,316.9 L551.3,316.7 L551.0,316.5 L550.7,316.1 L550.5,315.7 L550.2,315.3 L549.9,315.0 L549.6,314.7 L549.2,314.4 L548.9,314.1 L548.5,313.9 L548.1,313.7 L547.7,313.4 L547.3,313.3" fill="none" stroke="#8a8a80" stroke-width="1.3"/>
<path d="M569.9,282.2 L569.6,281.7 L569.3,281.1 L569.1,280.5 L567.6,275.1 L567.2,269.3 L567.1,263.5 L566.5,257.7 L566.4,256.7 L566.3,255.7 L566.3,254.7 L566.3,253.7 L566.2,252.7 L566.1,251.7 L565.9,250.8 L565.6,249.9 L565.2,249.1 L564.7,248.3 L564.5,248.1 L564.3,248.0 L564.2,247.8 L563.3,246.3 L563.1,244.5 L563.3,242.5 L563.5,240.5 L563.6,238.6 L563.3,236.7 L562.9,235.8 L562.3,234.8 L561.9,233.8 L561.7,232.5 L561.6,231.2 L561.4,229.9 L561.0,228.3 L560.5,226.7 L560.0,225.1 L559.3,223.5" fill="none" stroke="#8a8a80" stroke-width="1.3"/>
<path d="M568.8,278.5 L569.0,279.1 L569.2,279.6 L569.4,280.2 L569.6,280.7 L569.7,281.2 L569.8,281.7 L569.9,282.2" fill="none" stroke="#8a8a80" stroke-width="1.3"/>
<path d="M323.3,271.3 L323.2,271.3" fill="none" stroke="#8a8a80" stroke-width="1.3"/>
<path d="M323.2,271.3 L263.9,262.8 L263.8,262.8" fill="none" stroke="#8a8a80" stroke-width="1.3"/>
<path d="M323.2,271.3 L323.2,270.7 L325.0,220.2" fill="none" stroke="#8a8a80" stroke-width="1.3"/>
<path d="M323.5,270.9 L431.9,245.7" fill="none" stroke="#8a8a80" stroke-width="1.3"/>
<path d="M438.1,269.2 L431.9,245.7" fill="none" stroke="#8a8a80" stroke-width="1.3"/>
<path d="M438.1,269.2 L438.5,269.1 L438.9,269.0 L439.3,268.8 L440.5,267.7 L441.4,266.3 L442.5,265.1 L442.9,264.8 L443.2,264.6 L443.6,264.4 L444.0,264.2 L444.4,264.0 L445.5,263.9 L446.7,263.9 L447.8,263.7 L448.5,263.5 L449.1,263.1 L449.7,262.7 L450.2,262.3 L450.8,261.9 L452.1,260.5 L453.1,258.7 L454.1,256.8 L455.1,255.1 L456.2,253.6 L457.7,252.8 L458.3,252.8 L459.0,252.8 L459.7,253.0 L460.4,253.1 L461.1,253.2 L461.7,253.1 L462.2,252.8 L462.6,252.3 L463.0,251.8 L463.9,251.2 L465.0,251.2 L466.2,251.4 L467.5,251.8 L468.9,252.1 L470.1,252.2 L471.3,252.0 L471.8,251.8 L472.3,251.5 L472.9,251.2 L473.5,250.9 L474.1,250.5 L474.7,250.2 L475.4,249.8 L476.0,249.4 L476.7,248.9 L477.3,248.5 L477.9,248.0 L478.4,247.5 L478.9,247.0 L479.4,246.5 L479.8,246.0 L480.2,245.4 L480.5,244.8 L480.7,244.2 L480.8,243.6 L480.9,243.0 L480.8,242.7 L480.8,242.5 L480.7,242.2 L480.6,242.0 L480.6,241.7 L480.5,241.5 L480.5,241.3 L480.6,241.1 L480.8,240.9 L481.0,240.8 L481.3,240.7 L481.6,240.6 L481.9,240.5 L482.2,240.3 L482.3,240.2 L482.4,240.1 L482.5,240.0 L482.6,239.9 L482.7,239.7 L482.8,239.6 L482.9,239.5 L483.0,239.3 L483.0,239.2 L483.1,239.1 L483.2,238.9 L483.2,238.8 L483.2,238.6 L483.3,238.4 L483.3,238.3 L483.3,238.1 L483.3,237.9 L483.3,237.7 L483.3,237.5 L483.3,237.3 L483.3,237.2 L483.3,237.0 L483.3,236.7 L483.2,236.5 L483.2,236.3 L483.1,236.1 L483.1,235.9 L483.0,235.7 L482.9,235.4 L482.8,235.2 L482.8,234.9 L482.7,234.7 L482.6,234.4 L482.5,234.2" fill="none" stroke="#8a8a80" stroke-width="1.3"/>
<path d="M263.8,262.8 L259.3,342.8 L259.3,342.9" fill="none" stroke="#8a8a80" stroke-width="1.3"/>
<path d="M263.8,262.8 L210.3,254.5" fill="none" stroke="#8a8a80" stroke-width="1.3"/>
<path d="M210.3,254.5 L210.0,254.4" fill="none" stroke="#d1341f" stroke-width="3" opacity="0.9"/>
<path d="M210.3,254.5 L210.9,246.8 L145.4,218.3 L99.8,198.2 L89.0,169.3" fill="none" stroke="#d1341f" stroke-width="3" opacity="0.9"/>
<path d="M557.1,251.9 L557.1,251.9" fill="none" stroke="#8a8a80" stroke-width="1.3"/>
<path d="M557.1,251.9 L538.1,249.1" fill="none" stroke="#8a8a80" stroke-width="1.3"/>
<path d="M557.1,251.9 L559.3,223.5" fill="none" stroke="#8a8a80" stroke-width="1.3"/>
<path d="M538.1,249.1 L538.1,249.1" fill="none" stroke="#8a8a80" stroke-width="1.3"/>
<path d="M538.1,249.1 L537.0,245.5 L535.7,242.0 L534.7,238.5 L534.5,237.3 L534.4,236.2 L534.5,234.9 L534.5,233.7 L534.6,232.4 L534.7,231.2 L534.8,230.0 L534.8,228.8 L534.7,227.7 L534.5,226.7 L534.1,225.8 L533.6,225.0 L532.8,224.3 L532.5,224.2 L532.1,224.1 L531.8,223.9 L531.4,223.8 L531.2,223.5 L531.1,223.4 L531.0,223.3 L531.0,223.2 L530.9,223.1 L530.9,223.0 L530.8,222.9 L530.8,222.8 L530.7,222.6 L530.7,222.5 L530.7,222.4 L530.7,222.2" fill="none" stroke="#8a8a80" stroke-width="1.3"/>
<path d="M431.9,245.7 L530.7,222.7" fill="none" stroke="#8a8a80" stroke-width="1.3"/>
<path d="M431.9,245.7 L431.9,245.4 L408.4,149.5 L408.3,149.0" fill="none" stroke="#8a8a80" stroke-width="1.3"/>
<path d="M559.3,223.5 L559.2,223.4" fill="none" stroke="#8a8a80" stroke-width="1.3"/>
<path d="M559.3,223.5 L559.9,214.5 L559.9,204.5" fill="none" stroke="#8a8a80" stroke-width="1.3"/>
<path d="M530.4,222.2 L531.0,221.5 L531.5,220.8 L532.0,220.1 L532.7,218.8 L533.4,217.4 L533.9,216.0 L534.4,214.6 L534.8,213.1 L535.0,211.6 L535.3,210.1 L535.4,208.6 L535.4,207.4 L535.3,206.1 L535.0,204.8 L534.6,203.6 L534.4,202.3 L534.3,201.1 L534.5,200.0 L534.9,199.0 L535.2,198.7 L535.5,198.3 L535.8,198.0 L536.2,197.7 L536.5,197.4 L536.9,197.1 L537.3,196.9 L538.8,196.7 L540.5,196.9 L541.8,196.6 L542.0,196.5 L542.1,196.4 L542.3,196.2 L542.4,196.0 L542.5,195.8 L542.7,195.5 L542.8,195.3 L542.9,195.0 L543.0,194.7 L543.1,194.4 L543.1,194.1" fill="none" stroke="#8a8a80" stroke-width="1.3"/>
<path d="M325.4,220.3 L325.0,220.2" fill="none" stroke="#8a8a80" stroke-width="1.3"/>
<path d="M325.0,220.2 L305.1,212.4 L266.9,207.8" fill="none" stroke="#8a8a80" stroke-width="1.3"/>
<path d="M325.0,220.2 L326.9,167.4 L328.3,122.3" fill="none" stroke="#8a8a80" stroke-width="1.3"/>
<path d="M606.0,217.9 L659.0,350.1" fill="none" stroke="#8a8a80" stroke-width="1.3"/>
<path d="M605.8,217.7 L607.3,214.1 L607.3,209.7 L611.1,198.8 L614.1,193.6 L619.8,184.3 L626.6,175.1 L630.1,167.7 L630.3,167.5" fill="none" stroke="#8a8a80" stroke-width="1.3"/>
<path d="M607.1,209.6 L606.4,210.6 L605.1,211.6 L604.3,211.5 L600.4,210.8 L598.7,210.6 L598.0,210.9 L597.0,211.8 L596.4,212.0 L595.2,211.8 L594.2,211.8 L593.0,213.2 L590.4,212.2 L588.7,212.4 L588.3,212.7 L587.1,213.1 L585.0,212.7 L582.7,212.5 L580.6,212.5 L579.6,213.4 L577.9,214.1 L576.7,214.2 L572.7,214.6 L569.8,214.7 L567.0,215.1 L566.2,214.9 L565.0,212.7 L564.3,211.6 L560.5,207.3 L559.9,204.5" fill="none" stroke="#8a8a80" stroke-width="1.3"/>
<path d="M266.9,207.8 L263.8,262.8" fill="none" stroke="#8a8a80" stroke-width="1.3"/>
<path d="M266.9,207.8 L211.1,201.2 L209.9,201.0" fill="none" stroke="#8a8a80" stroke-width="1.3"/>
<path d="M559.9,204.5 L559.9,204.4" fill="none" stroke="#8a8a80" stroke-width="1.3"/>
<path d="M559.9,204.5 L559.8,203.7 L562.6,200.3 L563.3,197.1 L564.2,194.3 L564.3,193.9 L564.3,191.8 L560.1,189.4 L559.6,188.2 L559.0,185.0 L559.3,182.4 L556.2,178.8 L552.2,176.7 L549.8,171.2 L544.8,166.1" fill="none" stroke="#8a8a80" stroke-width="1.3"/>
<path d="M209.9,201.0 L207.1,244.6" fill="none" stroke="#8a8a80" stroke-width="1.3"/>
<path d="M209.9,201.0 L165.0,192.7 L133.9,181.7" fill="none" stroke="#8a8a80" stroke-width="1.3"/>
<path d="M543.1,194.2 L543.1,194.1" fill="none" stroke="#8a8a80" stroke-width="1.3"/>
<path d="M543.1,194.1 L559.1,186.0" fill="none" stroke="#8a8a80" stroke-width="1.3"/>
<path d="M543.1,194.1 L543.2,193.9 L543.2,193.8 L543.3,193.6 L543.3,193.4 L543.3,193.2 L543.3,193.0 L543.3,192.8 L543.3,192.6 L543.3,192.5 L543.3,192.3 L543.3,192.1 L543.3,192.0 L543.2,191.8 L543.2,191.7 L543.2,191.5 L543.1,191.4 L543.1,191.3 L543.0,191.2 L542.9,191.0 L542.8,190.9 L542.7,190.9 L542.6,190.8 L541.9,190.5 L541.0,190.3 L540.5,189.9 L540.1,189.3 L539.7,188.7 L539.3,188.1 L538.9,187.6 L536.7,186.0 L534.2,184.6 L532.3,182.8 L531.7,181.7 L531.2,180.5 L530.7,179.3 L529.6,178.1 L528.4,176.9 L527.5,175.6 L527.0,172.5 L526.4,169.5 L525.0,168.2 L523.2,167.2 L521.6,166.0 L520.6,164.2 L519.8,162.1 L518.7,160.4 L518.0,160.0 L517.2,159.6 L516.5,159.1 L516.0,158.0 L515.7,156.7 L515.6,155.3 L515.2,154.0 L514.8,153.4 L514.4,152.8 L513.9,152.3 L513.3,151.7 L512.7,151.2 L512.0,150.8 L511.3,150.3 L510.6,149.9 L509.9,149.6 L509.2,149.2 L508.5,149.0 L507.8,148.7 L506.6,148.5 L505.3,148.6 L504.1,148.6 L502.9,148.6 L501.9,148.2 L501.5,147.8 L501.1,147.4 L500.7,147.0 L500.4,146.5 L500.1,146.0 L499.8,145.5 L499.5,145.0 L498.8,143.1 L498.2,141.1 L497.4,139.4 L495.9,138.3 L494.1,137.3 L492.6,136.2 L491.9,135.1 L491.4,133.9 L490.7,132.7 L490.4,132.3 L490.0,132.0 L489.6,131.6 L489.2,131.3 L488.7,130.9 L488.3,130.6 L487.8,130.3 L487.3,130.1" fill="none" stroke="#8a8a80" stroke-width="1.3"/>
<path d="M133.9,181.7 L109.7,173.3 L89.0,169.3" fill="none" stroke="#8a8a80" stroke-width="1.3"/>
<path d="M89.0,169.3 L88.6,169.3" fill="none" stroke="#d1341f" stroke-width="3" opacity="0.9"/>
<path d="M89.0,169.3 L81.1,148.5 L73.6,128.1" fill="none" stroke="#d1341f" stroke-width="3" opacity="0.9"/>
<path d="M327.2,168.7 L408.3,149.0" fill="none" stroke="#8a8a80" stroke-width="1.3"/>
<path d="M326.7,168.4 L269.7,158.4" fill="none" stroke="#8a8a80" stroke-width="1.3"/>
<path d="M629.4,167.6 L627.9,167.1 L620.4,164.2 L613.5,164.2 L597.8,164.2 L590.0,160.4 L580.3,160.8 L569.3,161.0 L564.4,161.8 L559.6,160.4 L552.5,164.0 L548.0,166.3 L544.8,166.1" fill="none" stroke="#8a8a80" stroke-width="1.3"/>
<path d="M630.3,167.5 L630.1,167.5" fill="none" stroke="#8a8a80" stroke-width="1.3"/>
<path d="M630.3,167.5 L634.7,159.9 L638.9,155.7 L642.6,152.1 L647.1,146.9 L652.9,140.7 L660.3,136.9 L663.2,135.9 L669.9,130.4 L678.0,127.1 L687.8,124.4 L697.7,124.6 L706.5,125.6 L719.0,129.8 L729.7,134.9 L730.7,136.5 L732.2,138.5 L741.4,144.6 L749.0,146.0 L751.5,145.9 L752.1,145.8 L755.3,144.9 L757.3,142.6 L762.2,138.1 L765.0,136.1 L770.6,133.3 L774.8,132.5 L778.5,130.2 L784.8,129.1 L796.8,128.5 L799.3,127.3 L799.6,123.9 L802.9,120.1 L803.6,115.6 L806.3,112.3 L809.5,108.5 L814.0,104.8 L817.6,100.6 L821.5,97.6 L826.1,94.9 L830.1,92.8 L833.8,92.1 L840.4,91.2 L844.0,90.2" fill="none" stroke="#8a8a80" stroke-width="1.3"/>
<path d="M544.8,166.1 L544.5,166.1" fill="none" stroke="#8a8a80" stroke-width="1.3"/>
<path d="M544.8,166.1 L544.4,165.8" fill="none" stroke="#8a8a80" stroke-width="1.3"/>
<path d="M543.4,164.2 L542.2,162.5 L541.0,158.7 L541.5,154.9 L540.8,152.7 L539.4,150.9 L538.3,148.6 L540.3,144.2 L540.8,139.5 L541.2,137.3 L541.2,137.3" fill="none" stroke="#8a8a80" stroke-width="1.3"/>
<path d="M269.7,158.4 L266.9,207.8" fill="none" stroke="#8a8a80" stroke-width="1.3"/>
<path d="M269.7,158.4 L269.4,158.3 L213.5,150.8 L213.2,150.8" fill="none" stroke="#8a8a80" stroke-width="1.3"/>
<path d="M213.2,150.8 L209.9,201.0" fill="none" stroke="#8a8a80" stroke-width="1.3"/>
<path d="M213.2,150.8 L171.2,143.1 L133.9,138.1" fill="none" stroke="#8a8a80" stroke-width="1.3"/>
<path d="M408.3,149.0 L487.5,129.8" fill="none" stroke="#8a8a80" stroke-width="1.3"/>
<path d="M408.3,149.0 L389.8,67.0 L338.2,64.0 L332.6,63.6 L330.2,65.9" fill="none" stroke="#8a8a80" stroke-width="1.3"/>
<path d="M753.2,145.6 L752.8,148.1 L771.4,165.1 L777.9,171.1 L781.8,172.8 L784.3,176.7 L786.7,181.2 L791.2,185.1 L794.4,186.8 L800.4,195.1 L801.0,197.2 L800.0,200.9 L797.8,205.5 L795.9,208.6 L791.0,213.0 L788.4,215.3 L781.8,220.0 L781.6,222.4 L779.4,226.3 L775.8,227.4 L769.9,229.7 L764.1,229.1 L756.1,225.0 L743.8,213.9 L741.2,212.0 L737.5,205.4 L736.1,199.2 L730.7,196.0 L722.5,190.2 L716.0,185.1 L707.1,182.5 L696.7,177.9 L687.4,177.8 L681.1,179.8 L660.3,174.0 L655.2,172.1 L646.1,170.8 L638.1,169.6 L633.5,167.5 L630.3,167.5" fill="none" stroke="#8a8a80" stroke-width="1.3"/>
<path d="M133.9,137.8 L73.6,128.1" fill="none" stroke="#8a8a80" stroke-width="1.3"/>
<path d="M541.2,137.3 L541.2,137.3" fill="none" stroke="#8a8a80" stroke-width="1.3"/>
<path d="M541.2,137.3 L540.4,135.9 L536.3,131.8 L535.1,129.8 L532.7,128.1 L531.7,125.4 L530.7,123.5 L529.3,122.6 L528.2,121.0 L527.3,118.7 L525.7,116.1 L524.2,113.4 L523.4,111.9 L523.3,110.7 L520.1,108.4 L513.7,101.9 L508.1,96.2 L507.6,94.1 L508.2,93.2 L509.4,91.9 L518.4,80.9 L530.8,72.1 L535.4,66.8 L539.8,60.8 L541.9,59.6 L544.3,59.2 L546.6,58.9 L549.9,58.2 L553.5,58.0 L555.9,58.2 L557.7,58.3 L560.2,59.4 L565.9,61.7 L572.9,63.9 L581.9,67.5" fill="none" stroke="#8a8a80" stroke-width="1.3"/>
<path d="M73.6,128.1 L73.0,128.0" fill="none" stroke="#d1341f" stroke-width="3" opacity="0.9"/>
<path d="M73.6,128.1 L72.6,125.2 L50.1,111.3 L40.6,88.1 L44.9,70.3" fill="none" stroke="#d1341f" stroke-width="3" opacity="0.9"/>
<path d="M328.5,122.4 L328.3,122.3" fill="none" stroke="#8a8a80" stroke-width="1.3"/>
<path d="M328.3,122.3 L272.6,108.8 L272.5,108.8" fill="none" stroke="#8a8a80" stroke-width="1.3"/>
<path d="M328.3,122.3 L330.0,66.1" fill="none" stroke="#8a8a80" stroke-width="1.3"/>
<path d="M272.5,108.8 L269.7,158.4" fill="none" stroke="#8a8a80" stroke-width="1.3"/>
<path d="M272.5,108.8 L249.7,103.2 L217.0,104.2 L216.2,104.2" fill="none" stroke="#8a8a80" stroke-width="1.3"/>
<path d="M216.2,104.2 L213.2,150.8" fill="none" stroke="#8a8a80" stroke-width="1.3"/>
<path d="M216.2,104.2 L135.5,95.2" fill="none" stroke="#8a8a80" stroke-width="1.3"/>
<path d="M818.9,99.4 L820.5,97.4 L823.6,95.8 L824.6,91.3 L825.4,88.9 L828.1,87.7" fill="none" stroke="#8a8a80" stroke-width="1.3"/>
<path d="M135.0,95.1 L131.7,93.8 L88.3,83.2 L78.3,79.2 L59.0,72.4 L44.9,70.3" fill="none" stroke="#8a8a80" stroke-width="1.3"/>
<path d="M44.9,70.3 L44.4,70.2" fill="none" stroke="#d1341f" stroke-width="3" opacity="0.9"/>
<path d="M44.9,70.3 L46.6,63.2 L57.5,40.8 L92.7,43.7 L199.9,56.7 L218.8,58.6 L275.0,65.1" fill="none" stroke="#d1341f" stroke-width="3" opacity="0.9"/>
<path d="M582.3,68.3 L582.4,68.6 L582.1,69.0 L581.7,69.3 L581.3,69.8 L581.0,70.2 L580.4,70.4 L580.1,71.5 L579.9,71.9 L579.2,73.3 L579.4,73.9 L579.4,74.5 L579.2,75.3 L578.6,76.2 L577.1,78.3 L576.6,79.4 L575.9,80.7 L575.4,81.8 L575.2,82.1 L574.5,83.2 L574.2,84.3 L573.6,85.2 L573.0,86.3 L572.3,87.5 L571.9,88.3 L571.0,89.7 L570.6,91.0 L570.2,91.8 L569.7,92.6 L568.6,93.2 L567.4,94.5 L566.6,95.7 L564.8,97.6 L564.3,98.5 L563.3,99.6 L562.1,100.8 L561.5,102.4 L560.4,104.5 L558.7,107.9 L557.9,109.1 L557.1,109.9 L556.4,110.9 L556.0,112.2 L555.2,113.6 L555.1,114.3 L554.7,114.9 L553.9,116.2 L552.1,118.9 L549.6,122.1 L547.9,124.4 L546.4,125.7 L544.1,128.2 L543.1,129.9 L542.8,131.2 L542.7,133.3 L542.3,134.5 L541.2,137.3" fill="none" stroke="#8a8a80" stroke-width="1.3"/>
<path d="M582.3,68.3 L589.0,64.3 L690.2,65.1 L821.4,86.4 L864.1,93.5 L957.1,157.2 L687.8,362.1" fill="none" stroke="#8a8a80" stroke-width="1.3"/>
<path d="M582.3,68.3 L582.3,68.3" fill="none" stroke="#8a8a80" stroke-width="1.3"/>
<path d="M581.9,67.5 L582.3,68.3 L582.3,68.3" fill="none" stroke="#8a8a80" stroke-width="1.3"/>
<path d="M581.9,67.5 L582.2,67.6" fill="none" stroke="#8a8a80" stroke-width="1.3"/>
<path d="M392.5,66.6 L493.1,72.5 L497.1,72.6 L519.7,49.4 L579.4,61.9 L581.9,67.5" fill="none" stroke="#8a8a80" stroke-width="1.3"/>
<path d="M275.0,65.1 L272.5,108.8" fill="none" stroke="#8a8a80" stroke-width="1.3"/>
<path d="M275.0,65.1 L297.4,67.7 L324.1,63.7 L330.0,66.0" fill="none" stroke="#d1341f" stroke-width="3" opacity="0.9"/>
<path d="M275.0,64.8 L275.0,65.1" fill="none" stroke="#d1341f" stroke-width="3" opacity="0.9"/>
<path d="M219.1,59.0 L216.2,104.2" fill="none" stroke="#8a8a80" stroke-width="1.3"/>
<line x1="628.7" y1="346.6" x2="629.1" y2="345.0" stroke="#1f8a3b" stroke-width="3.5" stroke-dasharray="2 3"/>
<circle cx="628.7" cy="346.6" r="4" fill="#1f8a3b"/><circle cx="629.1" cy="345.0" r="4" fill="#1f8a3b"/>
<line x1="544.7" y1="166.1" x2="543.4" y2="164.2" stroke="#1f8a3b" stroke-width="3.5" stroke-dasharray="2 3"/>
<circle cx="544.7" cy="166.1" r="4" fill="#1f8a3b"/><circle cx="543.4" cy="164.2" r="4" fill="#1f8a3b"/>
<line x1="210.3" y1="254.5" x2="207.1" y2="244.6" stroke="#1f8a3b" stroke-width="3.5" stroke-dasharray="2 3"/>
<circle cx="210.3" cy="254.5" r="4" fill="#1f8a3b"/><circle cx="207.1" cy="244.6" r="4" fill="#1f8a3b"/>
<line x1="844.0" y1="90.2" x2="856.8" y2="92.3" stroke="#1f8a3b" stroke-width="3.5" stroke-dasharray="2 3"/>
<circle cx="844.0" cy="90.2" r="4" fill="#1f8a3b"/><circle cx="856.8" cy="92.3" r="4" fill="#1f8a3b"/>
<line x1="191.2" y1="885.0" x2="184.3" y2="832.8" stroke="#1f8a3b" stroke-width="3.5" stroke-dasharray="2 3"/>
<circle cx="191.2" cy="885.0" r="4" fill="#1f8a3b"/><circle cx="184.3" cy="832.8" r="4" fill="#1f8a3b"/>
<circle cx="185.5" cy="857.6" r="3.5" fill="#2b3a1f"/>
<text x="190.5" y="853.6" font-size="11" fill="#2b3a1f">gate</text>
<circle cx="857.5" cy="88.2" r="3.5" fill="#2b3a1f"/>
<text x="862.5" y="84.2" font-size="11" fill="#2b3a1f">rhinogate</text>
<circle cx="131.5" cy="855.4" r="3.5" fill="#2b3a1f"/>
<text x="136.5" y="851.4" font-size="11" fill="#2b3a1f">airstrip</text>
<circle cx="310.3" cy="742.0" r="3.5" fill="#2b3a1f"/>
<text x="315.3" y="738.0" font-size="11" fill="#2b3a1f">lodge</text>
<circle cx="268.0" cy="521.5" r="3.5" fill="#2b3a1f"/>
<text x="273.0" y="517.5" font-size="11" fill="#2b3a1f">jw</text>
<circle cx="259.1" cy="789.1" r="3.5" fill="#2b3a1f"/>
<text x="264.1" y="785.1" font-size="11" fill="#2b3a1f">orphanage</text>
<circle cx="349.0" cy="153.1" r="3.5" fill="#2b3a1f"/>
<text x="354.0" y="149.1" font-size="11" fill="#2b3a1f">kingfisher</text>
<circle cx="648.0" cy="232.5" r="3.5" fill="#2b3a1f"/>
<text x="653.0" y="228.5" font-size="11" fill="#2b3a1f">yellowthorn</text>
<circle cx="750.4" cy="134.8" r="3.5" fill="#2b3a1f"/>
<text x="755.4" y="130.8" font-size="11" fill="#2b3a1f">naribo</text>
<circle cx="651.2" cy="395.1" r="3.5" fill="#2b3a1f"/>
<text x="656.2" y="391.1" font-size="11" fill="#2b3a1f">choroa</text>
<rect x="40" y="841" width="250" height="72" fill="#fff" stroke="#ccc"/>
<line x1="48" y1="855" x2="74" y2="855" stroke="#d1341f" stroke-width="3"/><text x="80" y="859" font-size="12">Fence lines — REMOVE from roads layer</text>
<line x1="48" y1="875" x2="74" y2="875" stroke="#1f8a3b" stroke-width="3" stroke-dasharray="2 3"/><text x="80" y="879" font-size="12">Missing connectors — ADD a short track</text>
<line x1="48" y1="895" x2="74" y2="895" stroke="#8a8a80" stroke-width="1.3"/><text x="80" y="899" font-size="12">Actual roads — keep</text>
</svg>